<svg width="133" height="34" viewBox="0 0 133 34" fill="none" xmlns="http://www.w3.org/2000/svg">
<path d="M28.1674 10.4061L21.7434 12.1201L25.5003 26.082L31.9243 24.3679L28.1674 10.4061Z" fill="#0096B8"/>
<path d="M23.782 19.6799L9.76099 23.421L11.4834 29.8218L25.5044 26.0807L23.782 19.6799Z" fill="#306B9B"/>
<path d="M26.445 4L12.428 7.73999L14.1493 14.1368L28.1663 10.3968L26.445 4Z" fill="#DFAE74"/>
<path d="M12.428 7.744L6 9.45911L9.75585 23.417L16.1838 21.7018L12.428 7.744Z" fill="#E4605B"/>
<path d="M77.5774 13.0074H76.496V10.3401H75.2773V16.9585H76.496V14.3658H77.5774V13.0074Z" fill="white"/>
<path d="M74.0173 10.6011H72.807V12.2039H70.1742V10.6011H68.9639V16.6272H74.0215V10.6011H74.0173ZM72.807 13.5209V15.2977H70.1742V13.5209H72.807Z" fill="white"/>
<path d="M70.2145 20.918V20.1974H75.8003V18.9549H70.2145V18.2384H75.8003V17H69V22.1978H75.9251V20.918H70.2145Z" fill="white"/>
<path d="M85.763 10.4685V14.051H84.8147V10.4685H83.6044V18.5489H80.277V12.1542H82.5354V10.7916H79.0625V19.9239H83.6044V23.0053H84.8147V15.4136H85.763V23.0053H86.9733V10.4685H85.763Z" fill="white"/>
<path d="M103.872 20.7439V14.548H102.662V20.7439H101.485V14.548H100.275V20.7439H98.6194V22.1065H107V20.7439H103.872Z" fill="white"/>
<path d="M106.38 10.7916H99.314V12.1542H105.17V19.5802H106.38V10.7916Z" fill="white"/>
<path d="M58.6616 15.1444C58.6616 13.4091 59.7305 12.2701 61.311 12.2701C62.8915 12.2701 63.9605 13.4091 63.9605 15.1444C63.9605 16.8798 62.8874 18.0146 61.311 18.0146C59.7347 18.0146 58.6616 16.8715 58.6616 15.1444ZM61.311 16.7266C62.1886 16.7266 62.7792 16.0887 62.7792 15.1196C62.7792 14.1505 62.1845 13.5126 61.311 13.5126C60.4376 13.5126 59.8428 14.1463 59.8428 15.1196C59.8428 16.0929 60.4334 16.7266 61.311 16.7266Z" fill="white"/>
<path d="M60.6373 21.2948V18.3998H59.4229V22.6533H66.6224V21.2948H60.6373Z" fill="white"/>
<path d="M67.4833 13.8439H66.4186V10.3194H65.2083V18.8553H66.4186V15.2065H67.4833V13.8439Z" fill="white"/>
<path d="M61.9223 11.0194V10.0751H60.712V11.0194H58.6199V12.3157H64.0601V11.0194H61.9223Z" fill="white"/>
<path d="M89.1985 15.1444C89.1985 13.4091 90.2674 12.2701 91.8479 12.2701C93.4284 12.2701 94.4973 13.4091 94.4973 15.1444C94.4973 16.8798 93.4242 18.0146 91.8479 18.0146C90.2716 18.0146 89.1985 16.8715 89.1985 15.1444ZM91.8479 16.7266C92.7255 16.7266 93.3161 16.0887 93.3161 15.1196C93.3161 14.1505 92.7213 13.5126 91.8479 13.5126C90.9745 13.5126 90.3797 14.1463 90.3797 15.1196C90.3797 16.0929 90.9745 16.7266 91.8479 16.7266Z" fill="white"/>
<path d="M92.4635 11.0194V10.0751H91.2491V11.0194H89.1611V12.3157H94.6014V11.0194H92.4635Z" fill="white"/>
<path d="M97.9826 13.2972H96.8138V10.3194H95.6035V18.2714H96.8138V14.6598H97.9826V13.2972Z" fill="white"/>
<path d="M89.394 18.8347V20.2014H95.6037V23.0012H96.8141V18.8347H89.394Z" fill="white"/>
<path d="M54.4649 16.9627V15.6539H50.0062V14.4818H54.1363V10.7833H48.7959V12.0962H52.926V13.1689H48.7959V16.9627H54.4649Z" fill="white"/>
<path d="M56.6859 10.336H55.4756V17.2029H56.6859V10.336Z" fill="white"/>
<path d="M55.4715 18.6525H50.5636V17.5922H49.3533V22.6533H56.6818V17.5922H55.4673V18.6525H55.4715ZM55.4715 20.0109V21.299H50.5636V20.0109H55.4715Z" fill="white"/>
<path d="M46.6707 16.0804V14.7095H46.1882V10.4022H38.6309V11.7773H44.9737V14.7095H38.3813V16.0804H41.8709V18.056H38.4521V19.4269H45.0818V22.6532H46.2922V18.056H43.0771V16.0804H46.6707Z" fill="white"/>
</svg>
