<svg width="35" height="36" viewBox="0 0 35 36" fill="none" xmlns="http://www.w3.org/2000/svg">
<path d="M6.7375 27.18C8.225 26.01 9.8875 25.0875 11.725 24.4125C13.5625 23.7375 15.4875 23.4 17.5 23.4C19.5125 23.4 21.4375 23.7375 23.275 24.4125C25.1125 25.0875 26.775 26.01 28.2625 27.18C29.2833 25.95 30.0781 24.555 30.6469 22.995C31.2156 21.435 31.5 19.77 31.5 18C31.5 14.01 30.1365 10.6125 27.4094 7.8075C24.6823 5.0025 21.3792 3.6 17.5 3.6C13.6208 3.6 10.3177 5.0025 7.59063 7.8075C4.86354 10.6125 3.5 14.01 3.5 18C3.5 19.77 3.78437 21.435 4.35313 22.995C4.92188 24.555 5.71667 25.95 6.7375 27.18ZM17.5 19.8C15.7792 19.8 14.3281 19.1925 13.1469 17.9775C11.9656 16.7625 11.375 15.27 11.375 13.5C11.375 11.73 11.9656 10.2375 13.1469 9.0225C14.3281 7.8075 15.7792 7.2 17.5 7.2C19.2208 7.2 20.6719 7.8075 21.8531 9.0225C23.0344 10.2375 23.625 11.73 23.625 13.5C23.625 15.27 23.0344 16.7625 21.8531 17.9775C20.6719 19.1925 19.2208 19.8 17.5 19.8ZM17.5 36C15.0792 36 12.8042 35.5275 10.675 34.5825C8.54583 33.6375 6.69375 32.355 5.11875 30.735C3.54375 29.115 2.29688 27.21 1.37813 25.02C0.459375 22.83 0 20.49 0 18C0 15.51 0.459375 13.17 1.37813 10.98C2.29688 8.79 3.54375 6.885 5.11875 5.265C6.69375 3.645 8.54583 2.3625 10.675 1.4175C12.8042 0.4725 15.0792 0 17.5 0C19.9208 0 22.1958 0.4725 24.325 1.4175C26.4542 2.3625 28.3063 3.645 29.8813 5.265C31.4563 6.885 32.7031 8.79 33.6219 10.98C34.5406 13.17 35 15.51 35 18C35 20.49 34.5406 22.83 33.6219 25.02C32.7031 27.21 31.4563 29.115 29.8813 30.735C28.3063 32.355 26.4542 33.6375 24.325 34.5825C22.1958 35.5275 19.9208 36 17.5 36Z" fill="white"/>
</svg>
