<svg width="16" height="16" viewBox="0 0 16 16" fill="none" xmlns="http://www.w3.org/2000/svg">
<mask id="mask0_464_250" style="mask-type:alpha" maskUnits="userSpaceOnUse" x="0" y="0" width="16" height="16">
<rect width="16" height="16" fill="#D9D9D9"/>
</mask>
<g mask="url(#mask0_464_250)">
<path d="M4.66675 14.6666V8.56665C4.10008 8.41109 3.62508 8.09998 3.24175 7.63331C2.85841 7.16665 2.66675 6.6222 2.66675 5.99998V1.33331H4.00008V5.99998H4.66675V1.33331H6.00008V5.99998H6.66675V1.33331H8.00008V5.99998C8.00008 6.6222 7.80841 7.16665 7.42508 7.63331C7.04175 8.09998 6.56675 8.41109 6.00008 8.56665V14.6666H4.66675ZM11.3334 14.6666V9.33331H9.33342V4.66665C9.33342 3.74442 9.65842 2.95831 10.3084 2.30831C10.9584 1.65831 11.7445 1.33331 12.6667 1.33331V14.6666H11.3334Z" fill="#1C1B1F"/>
</g>
</svg>
